<svg width="60" height="60" viewBox="0 0 60 60" fill="none" xmlns="http://www.w3.org/2000/svg">
<path d="M47.0933 28.3794C46.4411 28.3736 45.7908 28.3077 45.1506 28.1827C44.5352 28.0534 43.9339 27.864 43.3555 27.6171L42.9375 27.5187H42.6424C42.3965 27.5187 42.2736 27.6908 42.2736 28.0351V28.8466C42.2387 29.0004 42.2387 29.16 42.2736 29.3138C42.3971 29.5161 42.5764 29.6783 42.79 29.781C43.3814 30.077 44.01 30.292 44.6588 30.4204C45.4644 30.613 46.2896 30.712 47.1179 30.7155C47.9511 30.7405 48.7826 30.6241 49.5769 30.3712C50.2332 30.199 50.8452 29.8888 51.372 29.4614C51.87 29.0765 52.2807 28.5904 52.577 28.0351C52.8589 27.4354 53.0018 26.7797 52.995 26.1171C53.0039 25.2949 52.7449 24.4921 52.2573 23.8301C51.6016 23.0851 50.7494 22.5397 49.7982 22.2563L47.4621 21.5186C46.8094 21.3497 46.1984 21.0484 45.667 20.6334C45.5113 20.4839 45.3874 20.3045 45.3028 20.1058C45.2183 19.9072 45.1749 19.6935 45.1752 19.4776C45.1576 19.1858 45.2192 18.8947 45.3534 18.635C45.4876 18.3753 45.6894 18.1567 45.9375 18.0022C46.6179 17.6721 47.3709 17.5198 48.1261 17.5596C49.2021 17.5334 50.2699 17.7521 51.2491 18.1989C51.4492 18.301 51.6655 18.3675 51.8884 18.3956C52.1343 18.3956 52.2573 18.1989 52.2573 17.8546V16.9694C52.2647 16.7782 52.2132 16.5894 52.1098 16.4284C51.9784 16.261 51.8101 16.1263 51.6179 16.0349C51.3987 15.9142 51.168 15.8154 50.9294 15.7399C50.6234 15.6318 50.3114 15.5415 49.995 15.4694L48.913 15.2235C48.5119 15.1945 48.1092 15.1945 47.708 15.2235C47.018 15.2116 46.3301 15.3027 45.667 15.494C45.0462 15.6752 44.4632 15.9667 43.9457 16.3546C43.4657 16.7049 43.0707 17.1588 42.79 17.6825C42.4883 18.2409 42.3359 18.8677 42.3473 19.5022C42.3326 20.39 42.6186 21.2566 43.1588 21.9613C43.834 22.7746 44.7446 23.3588 45.7654 23.6334L48.2244 24.3711C48.8329 24.5133 49.398 24.8001 49.872 25.2072C50.1664 25.5189 50.3255 25.9344 50.3146 26.363C50.32 26.674 50.2432 26.981 50.0921 27.253C49.941 27.525 49.7209 27.7523 49.454 27.9122C48.7241 28.2793 47.908 28.4408 47.0933 28.3794ZM32.8062 16.453C32.7683 16.2119 32.6566 15.9886 32.4865 15.8136C32.3026 15.678 32.0744 15.6165 31.8472 15.6415H30.4947C30.2687 15.629 30.0445 15.6893 29.8553 15.8136C29.6761 15.9819 29.5627 16.2086 29.5357 16.453L27.0766 27.2728L24.2733 16.453C24.2286 16.209 24.1081 15.9853 23.929 15.8136C23.929 15.8136 23.6094 15.6415 23.2897 15.6415H21.6913C21.4208 15.6415 21.2979 15.789 21.2979 16.0595C21.3217 16.2857 21.3712 16.5085 21.4454 16.7235L25.2815 29.363C25.3314 29.5879 25.4323 29.7982 25.5766 29.9778C25.7699 30.0904 25.9928 30.1419 26.216 30.1253H27.6176C27.8485 30.1409 28.079 30.0897 28.2816 29.9778C28.4366 29.7862 28.5383 29.5572 28.5766 29.3138L31.0357 18.7891L33.4947 29.3384C33.5152 29.5795 33.6196 29.8058 33.7898 29.9778C33.9833 30.1129 34.219 30.174 34.4538 30.1499H35.8554C36.0736 30.1606 36.2893 30.1002 36.4702 29.9778C36.6552 29.8107 36.7768 29.5848 36.8145 29.3384L40.7735 16.6989C40.7879 16.5681 40.7879 16.4362 40.7735 16.3054C40.7831 16.2155 40.7831 16.1249 40.7735 16.0349C40.7818 15.9781 40.7767 15.9202 40.7586 15.8657C40.7405 15.8112 40.7099 15.7617 40.6693 15.7211C40.6287 15.6805 40.5792 15.65 40.5247 15.6319C40.4703 15.6138 40.4123 15.6087 40.3555 15.6169L38.8309 15.6169C38.6052 15.6077 38.3821 15.6678 38.1915 15.789C38.0401 15.9766 37.9311 16.1947 37.8718 16.4284L35.4128 27.5187L32.8062 16.453ZM15.1748 21.6908C14.5958 21.6148 14.0128 21.5737 13.4289 21.5678C11.9817 21.4918 10.5565 21.9464 9.42064 22.8465C8.93696 23.2608 8.55306 23.7789 8.29758 24.3622C8.04211 24.9455 7.92165 25.579 7.94521 26.2154C7.91661 26.795 8.00897 27.3741 8.21641 27.916C8.42386 28.4579 8.74185 28.9507 9.15014 29.363C9.58897 29.768 10.1044 30.081 10.6661 30.2838C11.2278 30.4865 11.8244 30.5747 12.4207 30.5433C13.3593 30.5703 14.2914 30.3802 15.1445 29.9878C15.9976 29.5954 16.7485 29.0113 17.3388 28.281C17.4825 28.6107 17.6468 28.931 17.8306 29.24C18.0056 29.5102 18.2031 29.7652 18.4208 30.0023C18.4802 30.0626 18.5511 30.1104 18.6292 30.143C18.7073 30.1757 18.791 30.1925 18.8757 30.1925C18.9603 30.1925 19.0441 30.1757 19.1222 30.143C19.2003 30.1104 19.2711 30.0626 19.3306 30.0023L20.3634 29.3138C20.4496 29.2604 20.523 29.1887 20.5782 29.1037C20.6335 29.0186 20.6693 28.9225 20.6831 28.822C20.7228 28.6939 20.7228 28.5567 20.6831 28.4286C20.4838 28.056 20.3113 27.6698 20.1667 27.2728C20.0349 26.7925 19.9769 26.2951 19.9946 25.7974V20.6088C20.0533 19.8801 19.9638 19.147 19.7313 18.4539C19.4988 17.7607 19.1283 17.1219 18.6421 16.5759C18.0171 16.0505 17.2908 15.6592 16.5081 15.4266C15.7255 15.1939 14.9033 15.1247 14.0928 15.2235C13.2628 15.2232 12.4362 15.3306 11.6338 15.5431C10.9193 15.7092 10.2262 15.9568 9.56818 16.2809C9.39462 16.3575 9.2426 16.4758 9.12555 16.6251C9.06547 16.8089 9.06547 17.007 9.12555 17.1907V18.0022C9.12555 18.3465 9.12555 18.494 9.46982 18.494C9.55895 18.5133 9.65118 18.5133 9.74032 18.494L10.3059 18.2973C10.8054 18.0521 11.3234 17.8465 11.8551 17.6825C12.4341 17.5374 13.0287 17.4631 13.6256 17.4612C14.5762 17.3616 15.5283 17.6349 16.2814 18.2235C16.867 18.959 17.1407 19.8949 17.0437 20.8301V22.035L15.1748 21.6908ZM17.0929 23.9039V24.5679C17.0948 25.0486 17.037 25.5276 16.9207 25.9941C16.817 26.3857 16.6233 26.7478 16.3552 27.0515C15.9452 27.5335 15.4086 27.8912 14.806 28.0843C14.2684 28.2734 13.7036 28.3731 13.1338 28.3794C12.8219 28.4026 12.5085 28.3622 12.2126 28.2608C11.9167 28.1594 11.6445 27.9989 11.4125 27.7892C11.1971 27.5559 11.0332 27.2799 10.9315 26.9791C10.8299 26.6783 10.7926 26.3594 10.8223 26.0433C10.802 25.69 10.8648 25.3369 11.0057 25.0123C11.1467 24.6877 11.3618 24.4007 11.6338 24.1744C12.3505 23.672 13.2207 23.437 14.0928 23.5105H15.6174C16.1161 23.6146 16.6086 23.7459 17.0929 23.9039ZM49.5769 37.3549C43.6983 39.8283 37.3888 41.1152 31.0111 41.1418C22.4746 41.1434 14.0847 38.9231 6.6665 34.6991C6.07633 34.3303 5.60911 34.945 6.12551 35.4123C12.8026 41.4484 21.4938 44.7722 30.4947 44.7321C37.5928 44.7496 44.5324 42.6334 50.413 38.6582C51.2491 37.8959 50.4868 36.8877 49.5769 37.3549Z" fill="white"/>
<path d="M46.1818 35.0405C45.7146 35.3847 45.7883 35.8519 46.3047 35.7782C48.0507 35.5569 51.9114 35.1142 52.5999 35.9995C53.2884 36.8847 51.8376 40.4995 51.1737 42.1225C50.9769 42.6143 51.4196 42.8111 51.8622 42.4422C52.9819 41.4114 53.8402 40.1289 54.3661 38.7008C54.892 37.2726 55.0705 35.7398 54.8868 34.229C53.4738 33.6725 51.9497 33.456 50.4376 33.597C48.9254 33.738 47.4676 34.2324 46.1818 35.0405Z" fill="white"/>
</svg>
