<svg width="65" height="65" viewBox="0 0 65 65" fill="none" xmlns="http://www.w3.org/2000/svg">
<ellipse opacity="0.1" cx="32.4713" cy="32.5" rx="32.4713" ry="32.5" fill="#C56035"/>
<ellipse opacity="0.1" cx="32.4437" cy="32.4753" rx="28.6782" ry="28.7069" fill="#C56035"/>
<circle opacity="0.1" cx="32.5859" cy="32.5859" r="24.1092" fill="#C56035"/>
<ellipse opacity="0.5" cx="32.3847" cy="32.3832" rx="19.5115" ry="19.5115" fill="#C56035"/>
<g clip-path="url(#clip0_234_5689)" filter="url(#filter0_d_234_5689)">
<path d="M38.6095 29.4314L39.4757 28.5652L42.9404 32.0299L39.4757 35.4946L38.6095 34.6284L37.7434 35.4946L39.4757 37.2269L44.6727 32.0299L39.4757 26.8329L37.7434 28.5652L38.6095 29.4314Z" fill="white"/>
<path d="M36.0118 38.9599L32.5471 42.4246L29.0824 38.9599L29.9486 38.0937L29.0824 37.2276L27.3501 38.9599L32.5471 44.1569L37.7441 38.9599L36.0118 37.2276L35.1456 38.0937L36.0118 38.9599Z" fill="white"/>
<path d="M26.4854 34.6284L25.6193 35.4946L22.1546 32.0299L25.6193 28.5652L26.4854 29.4314L27.3516 28.5652L25.6193 26.8329L20.4222 32.0299L25.6193 37.2269L27.3516 35.4946L26.4854 34.6284Z" fill="white"/>
<path d="M27.3508 25.097L29.0832 26.8293L29.9493 25.9632L29.0832 25.097L32.5479 21.6323L36.0125 25.097L35.1464 25.9632L36.0125 26.8293L37.7449 25.097L32.5479 19.9L27.3508 25.097Z" fill="white"/>
<path d="M26.4835 32.0299L29.082 29.4314L31.6805 32.0299L29.082 34.6284L26.4835 32.0299Z" fill="white"/>
<path d="M29.9507 28.5663L32.5492 25.9678L35.1477 28.5663L32.5492 31.1648L29.9507 28.5663Z" fill="white"/>
<path d="M29.95 35.4935L32.5485 32.895L35.147 35.4935L32.5485 38.092L29.95 35.4935Z" fill="white"/>
<path d="M33.4136 32.0299L36.0121 29.4314L38.6106 32.0299L36.0121 34.6284L33.4136 32.0299Z" fill="white"/>
</g>
<defs>
<filter id="filter0_d_234_5689" x="15.6371" y="16.4387" width="33.8206" height="33.8206" filterUnits="userSpaceOnUse" color-interpolation-filters="sRGB">
<feFlood flood-opacity="0" result="BackgroundImageFix"/>
<feColorMatrix in="SourceAlpha" type="matrix" values="0 0 0 0 0 0 0 0 0 0 0 0 0 0 0 0 0 0 127 0" result="hardAlpha"/>
<feOffset dy="1.31923"/>
<feGaussianBlur stdDeviation="0.659616"/>
<feComposite in2="hardAlpha" operator="out"/>
<feColorMatrix type="matrix" values="0 0 0 0 0 0 0 0 0 0 0 0 0 0 0 0 0 0 0.25 0"/>
<feBlend mode="normal" in2="BackgroundImageFix" result="effect1_dropShadow_234_5689"/>
<feBlend mode="normal" in="SourceGraphic" in2="effect1_dropShadow_234_5689" result="shape"/>
</filter>
<clipPath id="clip0_234_5689">
<rect width="22.0491" height="22.0491" fill="white" transform="translate(16.9563 32.0298) rotate(-45)"/>
</clipPath>
</defs>
</svg>
