<svg width="55" height="21" viewBox="0 0 55 21" fill="none" xmlns="http://www.w3.org/2000/svg">
<path d="M5.68922 5.36572C5.59297 5.33484 5.48947 5.33484 5.39323 5.36572L4.85506 6.09225H14.3268C14.3802 6.08466 14.4315 6.06647 14.4777 6.03874C14.5239 6.01102 14.5641 5.97431 14.5959 5.9308L15.0533 5.23118V5.09664L5.68922 5.36572ZM1.73369 7.76057C1.68691 7.74058 1.63657 7.73028 1.5857 7.73028C1.53483 7.73028 1.48448 7.74058 1.4377 7.76057L0.899536 8.46018V8.59472H13.2774C13.3298 8.5977 13.3817 8.58356 13.4254 8.55444C13.4691 8.52532 13.5021 8.4828 13.5195 8.43327L13.7348 7.81438V7.65293L1.73369 7.76057ZM7.86879 10.2899C7.81447 10.294 7.76185 10.3108 7.71513 10.3388C7.66841 10.3668 7.62889 10.4054 7.59971 10.4514L7.2499 11.0972V11.2586H13.0352C13.0832 11.2529 13.1278 11.2313 13.162 11.1971C13.1962 11.1629 13.2178 11.1183 13.2236 11.0703V10.4514C13.2236 10.4514 13.2236 10.263 13.0621 10.263L7.86879 10.2899ZM50.8952 2.02909C49.8021 1.31492 48.5767 0.827798 47.2916 0.59667C46.0065 0.365543 44.6881 0.39513 43.4147 0.683674C41.9642 0.890737 40.5696 1.38536 39.3128 2.13853C38.056 2.89169 36.9622 3.88825 36.0956 5.06973C35.2963 6.08268 34.6856 7.2311 34.2928 8.46018L25.8436 8.46018C25.7046 8.45644 25.5679 8.49582 25.4523 8.57292C25.3367 8.65001 25.2477 8.76103 25.1978 8.89071C24.821 9.56342 24.2021 10.9357 23.8523 11.743C23.5025 12.5502 23.8523 12.5233 24.3367 12.5233H29.3955C29.1883 12.8643 28.9543 13.1882 28.6958 13.492C28.168 14.14 27.4824 14.6413 26.7048 14.9476C25.9272 15.2539 25.0839 15.355 24.256 15.2411C23.2647 15.1038 22.3574 14.6101 21.7037 13.8524C21.0499 13.0947 20.6946 12.1248 20.7041 11.1241C20.667 10.1296 20.897 9.14338 21.3702 8.26793C21.8435 7.39247 22.5426 6.65978 23.3949 6.14606C24.0757 5.649 24.8799 5.34848 25.7198 5.2773C26.5597 5.20612 27.403 5.36702 28.1577 5.74244C28.6285 5.98295 29.0416 6.32261 29.3685 6.73805C29.7184 7.14167 29.7453 7.11476 30.1489 7.00713L34.5349 5.85007C34.8578 5.85007 34.9655 5.63481 34.804 5.41954C34.1904 3.90212 33.13 2.60708 31.7634 1.70619C30.7507 1.03932 29.614 0.583595 28.4211 0.366289C27.2282 0.148983 26.0038 0.174563 24.821 0.441499C21.8808 0.927818 19.2406 2.52735 17.4482 4.90828C16.5864 5.97415 15.9471 7.202 15.5681 8.51922C15.1891 9.83644 15.0781 11.2163 15.2417 12.5772C15.3497 13.7215 15.7008 14.8296 16.2716 15.8273C16.8424 16.825 17.6196 17.6894 18.5514 18.3624C19.5493 19.1115 20.6877 19.6524 21.8988 19.9529C23.1099 20.2533 24.369 20.3073 25.6014 20.1115C27.1 19.9338 28.5456 19.4476 29.847 18.6834C31.1484 17.9193 32.2773 16.8938 33.1626 15.6716C33.5871 15.0882 33.9564 14.4667 34.2659 13.8149C34.7025 15.4533 35.644 16.9126 36.9567 17.9857C38.7507 19.4899 41.0197 20.3098 43.3609 20.2998C44.0336 20.2998 44.7332 20.2998 45.4597 20.0577C47.8387 19.5881 50.0225 18.4165 51.7294 16.6941C52.9007 15.5728 53.7821 14.1836 54.2977 12.6462C54.8133 11.1087 54.9477 9.46906 54.6893 7.8682C54.5328 6.67345 54.1108 5.5289 53.4542 4.51851C52.7977 3.50811 51.9233 2.65751 50.8952 2.02909ZM46.1055 14.7567C45.4518 15.1078 44.7265 15.3048 43.985 15.3328C43.2435 15.3608 42.5054 15.219 41.8271 14.9182C40.9115 14.5022 40.1692 13.7808 39.7273 12.8774C39.2855 11.9741 39.1716 10.9451 39.4054 9.96705C39.6164 8.84331 40.1602 7.80891 40.9663 6.99803C41.7723 6.18715 42.8035 5.6372 43.926 5.41954C44.5088 5.25646 45.1197 5.21891 45.7182 5.30938C46.3166 5.39984 46.8891 5.61626 47.3978 5.94433C47.9064 6.27241 48.3396 6.70467 48.6689 7.21257C48.9981 7.72047 49.2158 8.29245 49.3076 8.89071C49.3234 9.17752 49.3234 9.46498 49.3076 9.75178C49.2882 10.8004 48.9787 11.8231 48.4135 12.7066C47.8483 13.59 47.0494 14.2996 46.1055 14.7567Z" fill="#11D7D7"/>
</svg>
