<svg width="54" height="56" viewBox="0 0 54 56" fill="none" xmlns="http://www.w3.org/2000/svg">
<path d="M53.2432 13.3381C53.2629 13.4111 53.2731 13.4865 53.2731 13.5622V25.3339C53.2731 25.6415 53.1087 25.9255 52.8418 26.0785L42.9619 31.7672V43.042C42.9619 43.1928 42.9223 43.3411 42.847 43.4718C42.7717 43.6025 42.6633 43.7111 42.5328 43.7868L21.9087 55.6594C21.8614 55.686 21.81 55.7031 21.7584 55.7216C21.7391 55.7278 21.7209 55.7397 21.7006 55.7451C21.5564 55.7831 21.4048 55.7831 21.2606 55.7451C21.2369 55.7388 21.2155 55.7257 21.193 55.7172C21.1458 55.6999 21.0964 55.685 21.0515 55.6594L0.431509 43.7865C0.300478 43.7113 0.191601 43.6029 0.115862 43.4722C0.0401227 43.3414 0.000200182 43.1931 0.00012207 43.042L0.00012207 7.72694C0.00012207 7.64953 0.0109432 7.5744 0.0300881 7.50157C0.0365392 7.4768 0.0515222 7.45433 0.0602623 7.42957C0.0762858 7.38462 0.091477 7.33842 0.114992 7.29659C0.131016 7.26871 0.154531 7.24623 0.173884 7.22043C0.198647 7.18609 0.221122 7.15072 0.250047 7.12054C0.274811 7.09599 0.307066 7.07767 0.334951 7.05624C0.366166 7.03043 0.393843 7.00255 0.42922 6.98216H0.43026L10.7407 1.04596C10.8712 0.97082 11.0192 0.931274 11.1699 0.931274C11.3205 0.931274 11.4685 0.97082 11.5991 1.04596L21.9095 6.98216H21.9116C21.9459 7.0038 21.975 7.03043 22.006 7.0552C22.0339 7.07663 22.0651 7.09599 22.0897 7.11971C22.1199 7.15072 22.1413 7.1863 22.1669 7.22043C22.1852 7.24623 22.21 7.26871 22.225 7.29659C22.2495 7.33946 22.2635 7.38462 22.2807 7.42977C22.2893 7.45433 22.3042 7.4768 22.3107 7.50261C22.3305 7.57565 22.3407 7.65119 22.3409 7.72694V29.7841L30.9324 24.8369V13.5612C30.9324 13.4863 30.9432 13.4099 30.9626 13.3381C30.9701 13.3123 30.984 13.2898 30.9925 13.2653C31.0098 13.2201 31.0248 13.1737 31.0483 13.1321C31.0643 13.1042 31.0878 13.0817 31.1064 13.0559C31.132 13.0216 31.1534 12.9862 31.1834 12.956C31.2083 12.9315 31.2393 12.9132 31.2672 12.8917C31.2995 12.8659 31.3274 12.838 31.3617 12.8176H31.3627L41.6742 6.88144C41.8047 6.8062 41.9527 6.76659 42.1034 6.76659C42.2541 6.76659 42.4021 6.8062 42.5326 6.88144L52.843 12.8176C52.8794 12.8391 52.9073 12.8659 52.9396 12.8905C52.9662 12.9121 52.9974 12.9315 53.0222 12.955C53.0521 12.9862 53.0736 13.0216 53.0992 13.0559C53.1187 13.0817 53.1423 13.1042 53.1574 13.1321C53.182 13.1737 53.1959 13.2201 53.213 13.2653C53.2228 13.2898 53.2367 13.3123 53.2432 13.3381ZM51.5545 24.8372V15.0482L47.9463 17.1253L42.9617 19.9953V29.7843L51.5555 24.8372H51.5545ZM41.2441 42.5452V32.7495L36.3409 35.5498L22.3398 43.5408V53.4283L41.2441 42.5448V42.5452ZM1.7188 9.21276L1.7188 42.5452L20.6209 53.4275V43.5418L10.7463 37.9531L10.7432 37.9511L10.739 37.949C10.7057 37.9296 10.6776 37.9017 10.6466 37.8782C10.6196 37.8566 10.5886 37.8395 10.565 37.8158L10.563 37.8127C10.5351 37.7858 10.5157 37.7525 10.4922 37.7226C10.4706 37.6934 10.445 37.6689 10.4277 37.6389L10.4267 37.6356C10.4073 37.6035 10.3954 37.5648 10.3815 37.5284C10.3676 37.4962 10.3494 37.466 10.3407 37.4319V37.4308C10.3301 37.39 10.328 37.347 10.3236 37.3051C10.3195 37.2731 10.3107 37.2408 10.3107 37.2086L10.3107 14.1601L5.32701 11.2887L1.7188 9.214V9.21276ZM11.171 2.78191L2.58033 7.72694L11.1689 12.6718L19.7584 7.72569L11.1689 2.78191H11.171ZM15.6385 33.6424L20.622 30.7736V9.21276L17.0142 11.29L12.0292 14.1599L12.0292 35.7205L15.6385 33.6424ZM42.1033 8.61739L33.5138 13.5622L42.1033 18.5072L50.6917 13.5612L42.1035 8.61739H42.1033ZM41.2438 19.9953L36.2593 17.1253L32.6513 15.0482V24.8372L37.6348 27.7062L41.2441 29.7843V19.9953H41.2438ZM21.4793 42.055L34.0782 34.8623L40.3761 31.268L31.7929 26.3263L21.9105 32.0157L12.9036 37.2011L21.4793 42.055Z" fill="#FF2D20"/>
</svg>
