<svg width="90" height="70" viewBox="0 0 90 70" fill="none" xmlns="http://www.w3.org/2000/svg">
<path d="M13.6425 0H25.8597L13.6425 22.6018L19.7511 34.4118L25.8597 45L51.1086 0.20362H76.1539L89.7964 23.4163L76.1539 46.2217H63.3258L73.7104 26.4706L81.6516 23.4163L73.7104 18.9367L63.3258 1.22172L37.4661 46.2217H13.6425L0 22.6018L13.6425 0Z" fill="white"/>
<path d="M64.3439 23.4162C66.1432 23.4162 67.6018 21.9576 67.6018 20.1583C67.6018 18.359 66.1432 16.9004 64.3439 16.9004C62.5446 16.9004 61.086 18.359 61.086 20.1583C61.086 21.9576 62.5446 23.4162 64.3439 23.4162Z" fill="white"/>
<path d="M0.872314 61.086V51.6291H3.36462L6.39693 58.2753H6.64616V51.6291H8.55693V61.086H6.09231L3.03231 54.3291H2.78308V61.086H0.872314ZM13.4261 61.2383C12.6876 61.2383 12.0784 61.1459 11.5984 60.9614C11.1277 60.7676 10.7538 60.4723 10.4769 60.0753C10.2 59.6782 10.0061 59.1753 9.89536 58.566C9.7938 57.9474 9.74306 57.2136 9.74306 56.3645C9.74306 55.506 9.7938 54.7722 9.89536 54.163C10.0061 53.5444 10.2 53.0369 10.4769 52.6399C10.7538 52.2428 11.1323 51.9476 11.6123 51.7537C12.1015 51.5599 12.7246 51.463 13.4815 51.463C13.7861 51.463 14.1046 51.4813 14.4369 51.5183C14.7692 51.5554 15.0877 51.6014 15.3923 51.6568C15.7061 51.7028 15.9738 51.7537 16.1954 51.8091L16.14 53.3322C15.9553 53.2951 15.7246 53.263 15.4477 53.2353C15.1707 53.1982 14.8892 53.1705 14.6031 53.1522C14.3169 53.1339 14.0492 53.1245 13.8 53.1245C13.3569 53.1245 12.9969 53.1799 12.72 53.2907C12.4431 53.4014 12.2261 53.5859 12.0692 53.8445C11.9215 54.1031 11.82 54.4399 11.7646 54.8553C11.7092 55.2613 11.6815 55.7646 11.6815 56.3645C11.6815 56.9554 11.7092 57.4583 11.7646 57.8737C11.82 58.2797 11.9215 58.6121 12.0692 58.8706C12.2169 59.1199 12.4292 59.3044 12.7061 59.4245C12.9923 59.5353 13.3615 59.5906 13.8138 59.5906C14.183 59.5906 14.5892 59.5723 15.0323 59.5353C15.4846 59.4892 15.8584 59.4477 16.1538 59.4106L16.1954 60.9199C15.9738 60.9659 15.7108 61.0168 15.4061 61.0722C15.1015 61.1182 14.7784 61.1553 14.4369 61.183C14.0954 61.22 13.7584 61.2383 13.4261 61.2383ZM20.8234 61.2383C19.8173 61.2383 19.0188 61.0628 18.4281 60.7122C17.8465 60.3522 17.4265 59.8122 17.1681 59.0922C16.9188 58.3722 16.7942 57.4722 16.7942 56.3922C16.7942 55.3028 16.9188 54.3939 17.1681 53.6645C17.4265 52.9351 17.8465 52.3862 18.4281 52.0168C19.0188 51.6474 19.8173 51.463 20.8234 51.463C21.8296 51.463 22.6234 51.6474 23.205 52.0168C23.7957 52.3862 24.2158 52.9351 24.465 53.6645C24.7234 54.3939 24.8527 55.3028 24.8527 56.3922C24.8527 57.4905 24.7234 58.3999 24.465 59.1199C24.2158 59.8399 23.7957 60.3754 23.205 60.726C22.6234 61.0677 21.8296 61.2383 20.8234 61.2383ZM20.8234 59.6322C21.405 59.6322 21.8434 59.5169 22.1388 59.286C22.4434 59.0462 22.6465 58.6862 22.7481 58.206C22.8496 57.7169 22.9004 57.1122 22.9004 56.3922C22.9004 55.6722 22.845 55.0674 22.7342 54.5783C22.6326 54.0799 22.4342 53.706 22.1388 53.4568C21.8434 53.1982 21.405 53.0691 20.8234 53.0691C20.2511 53.0691 19.8127 53.1982 19.5081 53.4568C19.2126 53.706 19.0096 54.0799 18.8988 54.5783C18.7881 55.0674 18.7327 55.6722 18.7327 56.3922C18.7327 57.1028 18.7834 57.6982 18.885 58.1783C18.9958 58.6585 19.1988 59.023 19.4942 59.2722C19.7988 59.5121 20.2419 59.6322 20.8234 59.6322ZM26.0166 61.086V51.6291H29.6305C30.3689 51.6291 30.9874 51.7354 31.4858 51.9476C31.9935 52.1508 32.3997 52.4505 32.7043 52.8476C33.0089 53.2446 33.2258 53.7244 33.3551 54.2876C33.4935 54.8508 33.5628 55.4922 33.5628 56.2122C33.5628 56.9416 33.4981 57.6013 33.3689 58.1922C33.2489 58.7831 33.0412 59.2954 32.7458 59.7291C32.4505 60.1628 32.0535 60.5 31.5551 60.7399C31.0566 60.9708 30.4335 61.086 29.6858 61.086H26.0166ZM27.9274 59.4799H29.5751C30.0089 59.4799 30.3597 59.3968 30.6274 59.2306C30.8951 59.0645 31.0981 58.8336 31.2366 58.5383C31.3843 58.2337 31.4812 57.8876 31.5274 57.4999C31.5828 57.1028 31.6105 56.6736 31.6105 56.2122C31.6105 55.7691 31.5828 55.3676 31.5274 55.0076C31.472 54.6382 31.3705 54.3246 31.2228 54.066C31.0843 53.7985 30.8812 53.5953 30.6135 53.4568C30.3551 53.309 30.0089 53.2353 29.5751 53.2353H27.9274V59.4799ZM34.7181 61.086V51.6291H41.0042V53.2214H36.6288V55.5199H40.1734V57.0845H36.6288V59.4937H41.0042V61.086H34.7181ZM47.2256 61.086V59.4799H52.2517L50.9917 60.5737V58.2476C50.9917 57.5923 50.9225 57.0845 50.784 56.7245C50.6549 56.3645 50.4334 56.1108 50.1194 55.963C49.8148 55.8151 49.3949 55.7414 48.8594 55.7414H47.7379V54.1353H48.8594C49.7089 54.1353 50.4289 54.2737 51.0194 54.5506C51.6197 54.8276 52.0717 55.2707 52.3764 55.8799C52.6903 56.4797 52.8471 57.269 52.8471 58.2476V61.086H47.2256ZM60.3806 61.086V59.4799H61.8345V61.086H60.3806ZM56.6422 64.5199C56.3009 64.5199 55.9409 64.4922 55.5622 64.4368C55.1932 64.3908 54.7962 64.326 54.3714 64.243L54.6483 62.7614C55.1101 62.8168 55.5023 62.8583 55.8253 62.886C56.1486 62.9137 56.4206 62.9276 56.6422 62.9276C57.3068 62.9276 57.7869 62.8074 58.0822 62.5676C58.3778 62.3277 58.5253 61.9677 58.5253 61.4876V55.4091L58.9822 55.7414H57.2514C56.8731 55.7414 56.5685 55.7874 56.3376 55.8799C56.1071 55.963 55.936 56.143 55.8253 56.4199C55.7239 56.6874 55.673 57.0983 55.673 57.6522C55.673 58.1783 55.7194 58.5754 55.8114 58.843C55.9132 59.1016 56.0794 59.2722 56.3099 59.3553C56.5408 59.4383 56.8548 59.4799 57.2514 59.4799H58.5253V61.086H57.2514C56.4671 61.086 55.8208 60.9614 55.313 60.7122C54.8055 60.463 54.4268 60.0846 54.1776 59.5768C53.9377 59.069 53.8176 58.4276 53.8176 57.6522C53.8176 56.8768 53.9377 56.2305 54.1776 55.7137C54.4268 55.1876 54.8055 54.7954 55.313 54.5368C55.8208 54.2692 56.4671 54.1353 57.2514 54.1353H60.3806V61.4876C60.3806 62.1151 60.2239 62.6551 59.9099 63.1076C59.6053 63.569 59.1716 63.92 58.6083 64.1599C58.0545 64.3997 57.3992 64.5199 56.6422 64.5199ZM61.8345 61.086V59.4799C61.8899 59.4799 61.9314 59.4982 61.9591 59.5353C61.9962 59.5723 62.0239 59.6277 62.0422 59.7014C62.0699 59.7751 62.0886 59.8631 62.0976 59.9645C62.1069 60.0569 62.1114 60.1628 62.1114 60.283C62.1114 60.4031 62.1069 60.5139 62.0976 60.6153C62.0886 60.7167 62.0699 60.8046 62.0422 60.8783C62.0239 60.9431 61.9962 60.9936 61.9591 61.0306C61.9314 61.0677 61.8899 61.086 61.8345 61.086ZM61.5596 61.086V59.4799H65.0211V61.086H61.5596ZM65.0211 61.086V59.4799C65.0765 59.4799 65.1181 59.4982 65.1458 59.5353C65.1828 59.5723 65.2105 59.6277 65.2288 59.7014C65.2565 59.7751 65.2753 59.8631 65.2842 59.9645C65.2936 60.0569 65.2981 60.1628 65.2981 60.283C65.2981 60.4031 65.2936 60.5139 65.2842 60.6153C65.2753 60.7167 65.2565 60.8046 65.2288 60.8783C65.2105 60.9431 65.1828 60.9936 65.1458 61.0306C65.1181 61.0677 65.0765 61.086 65.0211 61.086ZM61.5596 61.086C61.5042 61.086 61.4627 61.0677 61.435 61.0306C61.3983 60.9936 61.3706 60.9431 61.3519 60.8783C61.3242 60.8046 61.3059 60.7167 61.2965 60.6153C61.2876 60.5139 61.2827 60.4031 61.2827 60.283C61.2827 60.1168 61.292 59.9783 61.3104 59.8676C61.3291 59.7474 61.3613 59.6554 61.4073 59.5906C61.4444 59.5169 61.4953 59.4799 61.5596 59.4799V61.086ZM64.7442 61.086V59.4799H68.2058V61.086H64.7442ZM68.2058 61.086V59.4799C68.2611 59.4799 68.3027 59.4982 68.3304 59.5353C68.3674 59.5723 68.3951 59.6277 68.4135 59.7014C68.4411 59.7751 68.4599 59.8631 68.4688 59.9645C68.4782 60.0569 68.4827 60.1628 68.4827 60.283C68.4827 60.4031 68.4782 60.5139 68.4688 60.6153C68.4599 60.7167 68.4411 60.8046 68.4135 60.8783C68.3951 60.9431 68.3674 60.9936 68.3304 61.0306C68.3027 61.0677 68.2611 61.086 68.2058 61.086ZM64.7442 61.086C64.6888 61.086 64.6473 61.0677 64.6196 61.0306C64.583 60.9936 64.5553 60.9431 64.5365 60.8783C64.5088 60.8046 64.4905 60.7167 64.4811 60.6153C64.4722 60.5139 64.4673 60.4031 64.4673 60.283C64.4673 60.1168 64.4767 59.9783 64.495 59.8676C64.5137 59.7474 64.5459 59.6554 64.5919 59.5906C64.629 59.5169 64.6799 59.4799 64.7442 59.4799V61.086ZM76.1258 61.086V59.4799H77.5796V61.086H76.1258ZM67.9288 61.086C67.8735 61.086 67.8319 61.0677 67.8042 61.0306C67.7676 60.9936 67.7399 60.9431 67.7211 60.8783C67.6935 60.8046 67.6751 60.7167 67.6658 60.6153C67.6568 60.5139 67.6519 60.4031 67.6519 60.283C67.6519 60.1168 67.6613 59.9783 67.6796 59.8676C67.6983 59.7474 67.7305 59.6554 67.7765 59.5906C67.8136 59.5169 67.8645 59.4799 67.9288 59.4799V61.086ZM67.9288 61.086V59.4799H74.8796L74.2704 59.9783V58.0953C74.2704 57.6151 74.2199 57.2323 74.1181 56.946C74.0167 56.6597 73.8599 56.4521 73.6473 56.323C73.4445 56.1939 73.1859 56.1291 72.8719 56.1291H69.8396L68.6904 54.4676L69.3965 53.1383C69.4796 52.9816 69.5721 52.8105 69.6735 52.626C69.7753 52.4416 69.9088 52.22 70.075 51.9614C70.2411 51.7028 70.4537 51.3799 70.7119 50.9922L72.2627 51.8645C72.0228 52.2245 71.829 52.5246 71.6811 52.7645C71.5337 52.9954 71.4091 53.1982 71.3073 53.3737C71.2059 53.5492 71.1135 53.7244 71.0304 53.8999L70.4765 54.9383L70.1996 54.523H72.8719C73.4628 54.523 73.9658 54.6199 74.3811 54.8137C74.7965 55.0076 75.1288 55.2751 75.3781 55.6168C75.6367 55.9585 75.826 56.3413 75.9458 56.766C76.0659 57.1908 76.1258 57.6339 76.1258 58.0953V61.086H67.9288ZM77.5796 61.086V59.4799C77.635 59.4799 77.6814 59.4982 77.7181 59.5353C77.7551 59.5723 77.7828 59.6277 77.8011 59.7014C77.8199 59.7751 77.8337 59.8631 77.8427 59.9645C77.8521 60.0569 77.8565 60.1628 77.8565 60.283C77.8565 60.4031 77.8521 60.5139 77.8427 60.6153C77.8337 60.7167 77.8199 60.8046 77.8011 60.8783C77.7828 60.9431 77.7551 60.9936 77.7181 61.0306C77.6814 61.0677 77.635 61.086 77.5796 61.086ZM77.3064 61.086V59.4799H80.7679V61.086H77.3064ZM80.7679 61.086V59.4799C80.8233 59.4799 80.8648 59.4982 80.8925 59.5353C80.9296 59.5723 80.9573 59.6277 80.9756 59.7014C81.0033 59.7751 81.022 59.8631 81.031 59.9645C81.0403 60.0569 81.0448 60.1628 81.0448 60.283C81.0448 60.4031 81.0403 60.5139 81.031 60.6153C81.022 60.7167 81.0033 60.8046 80.9756 60.8783C80.9573 60.9431 80.9296 60.9936 80.8925 61.0306C80.8648 61.0677 80.8233 61.086 80.7679 61.086ZM77.3064 61.086C77.251 61.086 77.2094 61.0677 77.1817 61.0306C77.1451 60.9936 77.1174 60.9431 77.0987 60.8783C77.071 60.8046 77.0526 60.7167 77.0433 60.6153C77.0343 60.5139 77.0294 60.4031 77.0294 60.283C77.0294 60.1168 77.0388 59.9783 77.0571 59.8676C77.0759 59.7474 77.108 59.6554 77.154 59.5906C77.1911 59.5169 77.242 59.4799 77.3064 59.4799V61.086ZM80.491 61.086V59.4799H83.0248L81.9448 60.3799V54.1353H83.8002V61.086H80.491ZM80.491 61.086C80.4356 61.086 80.394 61.0677 80.3663 61.0306C80.3297 60.9936 80.302 60.9431 80.2833 60.8783C80.2556 60.8046 80.2373 60.7167 80.2279 60.6153C80.2189 60.5139 80.214 60.4031 80.214 60.283C80.214 60.1168 80.2234 59.9783 80.2417 59.8676C80.2605 59.7474 80.2926 59.6554 80.3387 59.5906C80.3757 59.5169 80.4266 59.4799 80.491 59.4799V61.086ZM81.9448 52.8614V51.283H83.8002V52.8614H81.9448ZM85.7737 61.086V51.2968H87.6152V61.086H85.7737ZM85.8568 65.226C85.6812 65.0139 85.5477 64.8106 85.4552 64.6168C85.3628 64.423 85.3168 64.2153 85.3168 63.9937C85.3168 63.6797 85.3998 63.3939 85.566 63.1353C85.7321 62.886 85.9492 62.6877 86.2168 62.5399C86.4843 62.4014 86.78 62.3322 87.1029 62.3322C87.2784 62.3322 87.4584 62.3554 87.6429 62.4014C87.8274 62.4474 87.9846 62.5167 88.1137 62.6091L87.6429 63.4537C87.5598 63.4077 87.4768 63.3751 87.3937 63.3568C87.32 63.3474 87.2414 63.343 87.1583 63.343C86.9368 63.343 86.7661 63.3983 86.646 63.5091C86.5259 63.6292 86.466 63.786 86.466 63.9799C86.466 64.0906 86.4892 64.1969 86.5352 64.2983C86.5812 64.3997 86.6505 64.5105 86.7429 64.6306L85.8568 65.226ZM85.0121 65.3368V64.326H88.3629V65.3368H85.0121Z" fill="white"/>
</svg>
