<svg width="49" height="57" viewBox="0 0 49 57" fill="none" xmlns="http://www.w3.org/2000/svg">
<g clip-path="url(#clip0_230_5263)">
<path d="M24.4343 55.6829C23.7122 55.6829 22.9793 55.4889 22.3434 55.1224L15.6931 51.1883C14.7015 50.6278 15.1865 50.4338 15.5099 50.3261C16.8356 49.8626 17.1051 49.7656 18.517 48.9572C18.6679 48.871 18.862 48.9033 19.0128 49.0003L24.1218 52.029C24.305 52.1368 24.5637 52.1368 24.7361 52.029L44.6437 40.5393C44.827 40.4315 44.9455 40.216 44.9455 40.0004V17.021C44.9455 16.7947 44.827 16.5899 44.6329 16.4713L24.7361 4.99239C24.5529 4.8846 24.305 4.8846 24.1218 4.99239L4.23575 16.4821C4.04174 16.5899 3.92318 16.8054 3.92318 17.0318L3.92318 40.0004C3.92318 40.216 4.04174 40.4315 4.23575 40.5286L9.68959 43.6758C12.6536 45.1525 14.4644 43.4171 14.4644 41.6603L14.4644 18.9827C14.4644 18.6593 14.7231 18.4114 15.0464 18.4114H17.5686C17.8811 18.4114 18.1506 18.6593 18.1506 18.9827V41.6711C18.1506 45.6159 15.9949 47.8794 12.2548 47.8794C11.1016 47.8794 10.1962 47.8794 7.67404 46.6291L2.45733 43.6219C1.16393 42.8782 0.366333 41.4878 0.366333 39.9896L0.366333 17.021C0.366333 15.5336 1.16393 14.1324 2.45733 13.3887L22.3434 1.89901C23.6044 1.18764 25.2751 1.18764 26.5253 1.89901L46.4329 13.3995C47.7263 14.1432 48.5239 15.5336 48.5239 17.0318V40.0004C48.5239 41.4878 47.7263 42.8782 46.4329 43.6327L26.5253 55.1224C25.8894 55.4889 25.1673 55.6829 24.4343 55.6829ZM40.5048 33.0376C40.5048 28.7371 37.5947 27.5946 31.4834 26.7862C25.2966 25.967 24.6715 25.5467 24.6715 24.1024C24.6715 22.906 25.1996 21.3108 29.7804 21.3108C33.8654 21.3108 35.3744 22.1946 35.9995 24.9539C36.0534 25.2125 36.2905 25.4066 36.56 25.4066H39.1468C39.3084 25.4066 39.4593 25.3419 39.5671 25.2233C39.6749 25.1048 39.7288 24.9431 39.718 24.7814C39.3192 20.0282 36.1612 17.8186 29.7804 17.8186C24.1002 17.8186 20.7158 20.2114 20.7158 24.2317C20.7158 28.5862 24.0894 29.7933 29.5325 30.3322C36.0534 30.9682 36.56 31.9274 36.56 33.2101C36.56 35.4304 34.7708 36.3789 30.578 36.3789C25.3074 36.3789 24.1541 35.0532 23.7661 32.434C23.723 32.1538 23.4859 31.949 23.1948 31.949H20.6188C20.2955 31.949 20.0476 32.2077 20.0476 32.5203C20.0476 35.8723 21.8691 39.8711 30.5888 39.8711C36.8833 39.8603 40.5048 37.3705 40.5048 33.0376Z" fill="#5EEA6C"/>
</g>
<defs>
<clipPath id="clip0_230_5263">
<rect width="48.2869" height="55.1851" fill="white" transform="translate(0.289429 0.931519)"/>
</clipPath>
</defs>
</svg>
