<svg width="58" height="58" viewBox="0 0 58 58" fill="none" xmlns="http://www.w3.org/2000/svg">
<g clip-path="url(#clip0_230_5255)">
<path d="M57.4936 27.9513C57.4936 24.1642 52.7515 20.5749 45.4799 18.3503C47.159 10.9405 46.4135 5.04321 43.1267 3.15445C42.3302 2.70839 41.4288 2.48386 40.5162 2.50422V5.10037C41.0521 5.10037 41.4832 5.20755 41.8453 5.40524C43.4291 6.31508 44.1175 9.77344 43.5816 14.225C43.453 15.3206 43.2434 16.4734 42.9861 17.65C40.5511 17.0632 38.0797 16.6391 35.5883 16.3805C34.1041 14.3329 32.4849 12.3866 30.7414 10.5547C34.5403 7.02486 38.1059 5.09084 40.5305 5.09084V2.49231C37.3246 2.49231 33.1303 4.77645 28.8883 8.73736C24.6487 4.80265 20.452 2.53995 17.2485 2.53995V5.1361C19.6613 5.1361 23.2387 7.06058 27.0377 10.5666C25.4062 12.2815 23.7746 14.225 22.2241 16.3805C19.7276 16.6363 17.2517 17.0644 14.8143 17.6619C14.5567 16.5468 14.3541 15.4196 14.207 14.2846C13.6592 9.83061 14.3356 6.37225 15.91 5.45288C16.2577 5.24328 16.7126 5.14801 17.2485 5.14801V2.55185C16.272 2.55185 15.3836 2.76145 14.6167 3.20208C11.3417 5.09084 10.6081 10.9739 12.2968 18.3622C5.04901 20.6011 0.330688 24.1761 0.330688 27.9513C0.330688 31.7383 5.07283 35.3277 12.3444 37.5499C10.6653 44.962 11.4108 50.8593 14.6976 52.7457C15.455 53.1887 16.3411 53.3983 17.3176 53.3983C20.5235 53.3983 24.7178 51.1142 28.9598 47.1533C33.1994 51.0904 37.3937 53.3507 40.5996 53.3507C41.5192 53.3701 42.4275 53.1449 43.2315 52.6981C46.5064 50.8117 47.24 44.9287 45.5513 37.5404C52.7753 35.3158 57.4936 31.7264 57.4936 27.9513ZM42.3216 20.1795C41.869 21.7368 41.3445 23.2724 40.7496 24.7811C39.7759 22.887 38.7067 21.0435 37.5461 19.2577C39.2015 19.5031 40.7973 19.8055 42.324 20.1795H42.3216ZM36.9864 32.5886C36.114 34.1117 35.1771 35.5969 34.1783 37.0402C30.6824 37.3483 27.1664 37.3523 23.6698 37.0521C21.6642 34.1872 19.9103 31.1542 18.4275 27.987C19.908 24.8123 21.6545 21.7686 23.6484 18.8886C27.1434 18.5798 30.6586 18.575 34.1545 18.8743C35.1215 20.2605 36.067 21.7419 36.9745 23.3044C37.8605 24.8287 38.6656 26.3769 39.3992 27.9394C38.6574 29.5208 37.8525 31.0718 36.9864 32.5886ZM40.7496 31.0738C41.3784 32.6339 41.9167 34.1963 42.3573 35.7111C40.833 36.0851 39.2229 36.3995 37.558 36.6424C38.7138 34.8404 39.779 32.9819 40.7496 31.0738ZM28.936 43.5067C27.8523 42.3873 26.7685 41.1416 25.6967 39.7769C26.7447 39.8245 27.8165 39.8602 28.9002 39.8602C29.9959 39.8602 31.0796 39.8364 32.1395 39.7769C31.0915 41.1416 30.0078 42.3873 28.936 43.5067ZM20.2663 36.6424C18.6603 36.4097 17.066 36.1029 15.4884 35.723C15.9195 34.2201 16.4554 32.6696 17.0604 31.1214C17.5391 32.0503 18.0417 32.984 18.5895 33.9177C19.1373 34.8489 19.6946 35.7588 20.2663 36.6424ZM28.8764 12.3958C29.9601 13.5152 31.0438 14.7609 32.1157 16.1257C31.0677 16.078 29.9959 16.0423 28.9121 16.0423C27.8165 16.0423 26.7328 16.0661 25.6729 16.1257C26.7209 14.7609 27.8046 13.5152 28.8764 12.3958ZM20.2543 19.2601C19.0989 21.0582 18.0337 22.9127 17.0628 24.8168C16.4511 23.2983 15.9146 21.7507 15.455 20.1795C16.9794 19.8175 18.5895 19.5031 20.2543 19.2601ZM9.71017 33.8462C5.58491 32.0884 2.91731 29.7805 2.91731 27.9513C2.91731 26.1221 5.58491 23.8022 9.71017 22.0563C10.7105 21.6252 11.8061 21.2394 12.9375 20.8797C13.602 23.1615 14.4761 25.5385 15.5575 27.9751C14.5365 30.2668 13.6731 32.6255 12.9732 35.0347C11.8668 34.6921 10.7778 34.2955 9.71017 33.8462ZM15.979 50.4949C14.3951 49.5898 13.7068 46.1267 14.2427 41.6775C14.3713 40.5819 14.5809 39.4267 14.8382 38.2501C17.1199 38.8099 19.6136 39.241 22.236 39.522C23.7203 41.5696 25.3395 43.5159 27.0829 45.3479C23.284 48.8777 19.7184 50.8117 17.2938 50.8117C16.8363 50.8167 16.3847 50.7087 15.979 50.4973V50.4949ZM43.6173 41.618C44.1651 46.0695 43.4887 49.5303 41.9143 50.4497C41.5666 50.6593 41.1117 50.7521 40.5758 50.7521C38.163 50.7521 34.5856 48.83 30.7866 45.3217C32.5228 43.4974 34.1311 41.5556 35.6002 39.5101C38.0967 39.2544 40.5725 38.8262 43.01 38.2287C43.2791 39.4053 43.4863 40.5343 43.6173 41.618ZM48.1022 33.8462C47.1019 34.2773 46.0062 34.6632 44.8749 35.0228C44.1627 32.6013 43.2874 30.2307 42.2549 27.9274C43.3267 25.5052 44.1866 23.1401 44.8392 20.8678C45.9491 21.2116 47.042 21.6082 48.1141 22.0563C52.2394 23.8141 54.907 26.1221 54.907 27.9513C54.8951 29.7805 52.2275 32.1003 48.1022 33.8462Z" fill="#47D9AD"/>
<path d="M28.8998 33.2783C30.3122 33.2783 31.6668 32.7172 32.6656 31.7185C33.6644 30.7197 34.2255 29.3651 34.2255 27.9526C34.2255 26.5402 33.6644 25.1856 32.6656 24.1868C31.6668 23.188 30.3122 22.627 28.8998 22.627C27.4873 22.627 26.1327 23.188 25.134 24.1868C24.1352 25.1856 23.5741 26.5402 23.5741 27.9526C23.5741 29.3651 24.1352 30.7197 25.134 31.7185C26.1327 32.7172 27.4873 33.2783 28.8998 33.2783Z" fill="#47D9AD"/>
</g>
<defs>
<clipPath id="clip0_230_5255">
<rect width="57.1629" height="57.1629" fill="white" transform="translate(0.330444 0.109009)"/>
</clipPath>
</defs>
</svg>
