<svg width="60" height="60" viewBox="0 0 60 60" fill="none" xmlns="http://www.w3.org/2000/svg">
<path opacity="0.2" d="M48.0705 20.5321H35.1875V7.64917L48.0705 20.5321Z" fill="#0EB7FF"/>
<path d="M21.3854 38.937C21.3854 39.4251 21.1915 39.8932 20.8463 40.2384C20.5012 40.5835 20.0331 40.7774 19.5449 40.7774H17.2444V49.9795C17.2444 50.4676 17.0505 50.9358 16.7054 51.2809C16.3602 51.6261 15.8921 51.82 15.404 51.82C14.9159 51.82 14.4478 51.6261 14.1026 51.2809C13.7575 50.9358 13.5636 50.4676 13.5636 49.9795V40.7774H11.263C10.7749 40.7774 10.3068 40.5835 9.96166 40.2384C9.61651 39.8932 9.42261 39.4251 9.42261 38.937C9.42261 38.4489 9.61651 37.9808 9.96166 37.6356C10.3068 37.2905 10.7749 37.0966 11.263 37.0966H19.5449C20.0331 37.0966 20.5012 37.2905 20.8463 37.6356C21.1915 37.9808 21.3854 38.4489 21.3854 38.937ZM49.9119 20.5788V49.9795C49.9119 50.9558 49.5241 51.892 48.8338 52.5823C48.1435 53.2726 47.2073 53.6604 46.2311 53.6604H42.5502C42.0621 53.6604 41.594 53.4665 41.2489 53.1213C40.9037 52.7762 40.7098 52.3081 40.7098 51.82C40.7098 51.3319 40.9037 50.8637 41.2489 50.5186C41.594 50.1734 42.0621 49.9795 42.5502 49.9795H46.2311V22.3732H35.1885C34.7004 22.3732 34.2323 22.1793 33.8872 21.8341C33.542 21.489 33.3481 21.0209 33.3481 20.5328V9.4902H13.1035V29.7349C13.1035 30.223 12.9096 30.6911 12.5644 31.0362C12.2193 31.3814 11.7511 31.5753 11.263 31.5753C10.7749 31.5753 10.3068 31.3814 9.96166 31.0362C9.61651 30.6911 9.42261 30.223 9.42261 29.7349V9.4902C9.42261 8.51398 9.81041 7.57774 10.5007 6.88745C11.191 6.19716 12.1272 5.80936 13.1035 5.80936L35.1885 5.80936C35.6782 5.8066 36.1492 5.99667 36.4998 6.33848L49.3598 19.2214C49.5364 19.3908 49.6764 19.5945 49.7714 19.82C49.8663 20.0455 49.9142 20.2881 49.9119 20.5328V20.5788ZM37.029 18.6923H43.6315L37.029 12.0898V18.6923ZM30.0584 42.5718C29.3452 42.3878 28.0799 42.0427 27.8268 41.7436V41.6976C27.8268 40.9385 28.379 40.5474 29.4372 40.5474C30.2593 40.5641 31.0587 40.8199 31.7377 41.2835H31.7147C32.0486 41.5487 32.4617 41.6945 32.888 41.6976C33.3761 41.6976 33.8442 41.5037 34.1894 41.1586C34.5345 40.8134 34.7284 40.3453 34.7284 39.8572C34.7329 39.5877 34.6751 39.3208 34.5593 39.0774C34.4436 38.8339 34.2731 38.6205 34.0613 38.4539C32.7339 37.4354 31.1103 36.8781 29.4372 36.8665C26.3315 36.8665 24.146 38.845 24.146 41.6976C24.146 44.5503 27.1367 45.6085 29.1151 46.1377C29.8973 46.3447 30.7255 46.5517 31.2316 46.8508C31.7377 47.1499 31.5077 47.0809 31.5077 47.2189C31.5077 47.3569 31.5077 48.3692 29.4372 48.3692C28.6152 48.3524 27.8158 48.0966 27.1367 47.633H27.1597C26.8258 47.3678 26.4128 47.2221 25.9864 47.2189C25.4983 47.2189 25.0302 47.4128 24.685 47.7579C24.3399 48.1031 24.146 48.5712 24.146 49.0593C24.1415 49.3288 24.1994 49.5957 24.3151 49.8392C24.4309 50.0826 24.6013 50.296 24.8132 50.4627C26.1406 51.4811 27.7642 52.0384 29.4372 52.05C33.026 52.05 35.1885 50.2326 35.1885 47.2189C35.1885 44.2052 31.9678 43.0779 30.0584 42.5718Z" fill="#0EB7FF"/>
</svg>
