<svg width="1212" height="281" viewBox="0 0 1212 281" fill="none" xmlns="http://www.w3.org/2000/svg">
<g clip-path="url(#clip0_237_5881)">
<g style="mix-blend-mode:overlay" opacity="0.4">
<path d="M142.057 463.957C172.436 465.017 201.346 446.497 218.11 421.142C234.874 395.777 240.808 364.541 240.733 334.142C240.658 303.742 234.981 273.674 230.311 243.638C227.119 223.093 224.387 202.056 228.19 181.618C232.957 155.974 248.36 132.483 269.966 117.872C305.196 94.0496 350.892 95.3565 393.375 93.3962C445.155 91.0075 501.499 79.7816 534.277 39.6342C566.733 -0.106186 568.072 -58.817 601.225 -97.9682C620.838 -121.127 650.874 -135.106 681.23 -135.191" stroke="#20202F" stroke-miterlimit="10"/>
<path d="M131.26 457.626C144.521 458.59 158.028 454.787 169.094 448.157C173.11 445.747 176.763 442.972 180.234 440.016C189.124 432.443 196.591 422.974 202.364 412.39C210.709 397.03 216.257 379.827 221.088 362.41C224.377 350.563 226.337 338.533 227.13 326.247C227.419 321.737 227.537 317.174 227.483 312.525C227.172 289.377 222.084 266.283 217.628 243.767C217.061 240.939 216.493 238.111 215.947 235.273C211.962 214.749 208.555 193.529 212.122 172.716C214.972 155.985 222.481 140.035 233.514 127.159C239.802 119.833 247.15 113.523 255.323 108.435C280.013 92.9998 309.663 89.3685 339.12 87.2369C353.356 86.1979 367.763 85.5873 381.721 84.409C395.635 83.2414 409.7 81.2491 423.261 77.9927C453.296 70.8694 480.515 58.4867 502.506 38.1881C508.076 33.0464 513.303 27.4763 518.145 21.4564C535.926 -0.716865 546.681 -25.8786 558.228 -49.7764C567.986 -70.0001 578.023 -90.3845 594.423 -107.18C615.536 -128.818 646.235 -142.497 676.978 -143.825" stroke="#20202F" stroke-miterlimit="10"/>
<path d="M120.473 451.296C133.788 452.763 147.852 448.414 158.189 441.055C161.949 438.366 165.109 435.335 168.129 432.207C175.799 424.259 181.905 414.501 186.629 403.65C193.441 387.872 198.379 370.476 204.731 353.283C208.93 341.897 211.93 330.457 213.547 318.374C214.136 313.939 214.511 309.398 214.64 304.685C215.24 281.269 208.962 257.767 203.607 235.433C202.932 232.616 202.246 229.788 201.582 226.95C196.815 206.437 192.734 185.046 196.055 163.869C198.722 146.741 206.37 130.309 217.907 117.433C224.484 110.096 232.164 103.937 240.669 99.0628C266.238 84.2913 296.927 81.6563 326.684 79.289C341.188 78.1214 355.906 77.1895 370.056 75.4756C384.174 73.7618 398.27 71.0089 411.574 66.7777C440.924 57.4479 465.668 42.6014 486.663 20.8781C492.04 15.308 497.161 9.45944 502.002 3.33235C520.019 -19.5264 533.045 -42.7815 546.863 -64.1513C558.442 -82.0506 570.032 -100.743 587.589 -116.349C610.212 -136.455 641.565 -149.856 672.693 -152.405" stroke="#20202F" stroke-miterlimit="10"/>
<path d="M109.687 444.965C123.044 446.947 137.665 442.041 147.295 433.953C150.798 430.997 153.476 427.698 156.036 424.398C162.463 416.108 167.23 406.028 170.904 394.909C176.185 378.713 180.469 361.135 188.385 344.157C193.473 333.242 197.522 322.38 199.965 310.501C200.854 306.141 201.486 301.621 201.807 296.844C203.317 273.16 195.809 249.262 189.607 227.1C188.814 224.283 188.021 221.455 187.239 218.616C181.691 198.125 176.924 176.551 180.009 155.01C182.483 137.486 190.281 120.583 202.321 107.686C209.198 100.327 217.211 94.3283 226.037 89.6687C252.473 75.5721 284.212 73.9225 314.269 71.3303C329.041 70.0342 344.069 68.7809 358.412 66.5315C372.734 64.282 386.862 60.7686 399.899 55.552C428.574 44.0583 450.822 26.6946 470.821 3.55738C476.005 -2.44117 481.008 -8.56826 485.86 -14.7918C504.102 -38.3361 519.334 -59.6523 535.509 -78.5156C548.855 -94.0797 562.052 -111.079 580.776 -125.518C604.899 -144.103 636.927 -157.204 668.43 -160.996" stroke="#20202F" stroke-miterlimit="10"/>
<path d="M98.8892 438.623C112.289 441.109 127.479 435.646 136.38 426.841C139.615 423.616 141.811 420.071 143.921 416.579C149.127 407.967 152.555 397.555 155.158 386.158C158.95 369.554 162.485 351.794 172.018 335.02C177.952 324.565 183.094 314.293 186.361 302.617C187.55 298.332 188.439 293.833 188.953 288.992C191.374 265.04 182.633 240.746 175.574 218.755C174.674 215.949 173.753 213.121 172.864 210.271C166.523 189.801 161.081 168.035 163.931 146.13C166.212 128.209 174.171 110.824 186.704 97.9165C193.87 90.5468 202.225 84.7304 211.383 80.2529C238.72 66.8847 271.465 66.1563 301.833 63.3391C316.883 61.9145 332.201 60.3398 346.747 57.5548C361.272 54.7591 375.433 50.5172 388.212 44.283C416.212 30.6363 435.965 10.7126 454.978 -13.7958C459.97 -20.2335 464.854 -26.6284 469.717 -32.959C488.195 -57.1889 505.548 -76.5663 524.154 -92.9338C539.193 -106.163 554.072 -121.481 573.964 -134.731C599.586 -151.795 632.278 -164.595 664.178 -169.63" stroke="#20202F" stroke-miterlimit="10"/>
<path d="M88.1025 432.293C101.546 435.281 117.303 429.272 125.486 419.728C128.464 416.236 130.178 412.444 131.828 408.77C135.812 399.858 137.88 389.082 139.422 377.417C141.682 360.396 144.468 342.443 155.661 325.894C162.42 315.9 168.676 306.216 172.768 294.744C174.257 290.545 175.414 286.057 176.099 281.151C179.43 256.932 169.447 232.241 161.553 210.421C160.535 207.615 159.507 204.798 158.5 201.949C151.377 181.489 145.249 159.552 147.863 137.282C149.963 118.965 158.061 101.109 171.107 88.1796C178.574 80.7992 187.25 75.1327 196.741 70.8694C224.955 58.1761 258.74 58.4332 289.407 55.3911C304.725 53.8379 320.354 51.9526 335.093 48.6213C349.811 45.2899 364.014 40.2983 376.526 33.0679C403.841 17.2788 421.076 -5.21572 439.136 -31.1059C443.924 -37.9828 448.712 -44.6455 453.575 -51.0832C472.288 -75.9986 491.687 -93.4802 512.8 -107.298C529.478 -118.213 546.092 -131.828 567.14 -143.889C594.262 -159.421 627.619 -171.933 659.904 -178.199" stroke="#20202F" stroke-miterlimit="10"/>
<path d="M77.3158 425.962C90.8018 429.454 107.116 422.888 114.582 412.626C117.303 408.866 118.545 404.839 119.723 400.961C122.508 391.76 123.194 380.609 123.687 368.676C124.415 351.238 126.408 333.07 139.315 316.757C146.867 307.202 154.279 298.14 159.196 286.86C160.985 282.736 162.399 278.28 163.277 273.299C167.53 248.812 156.293 223.725 147.552 202.077C146.428 199.281 145.271 196.453 144.157 193.604C136.241 173.166 129.45 151.047 131.806 128.413C133.713 109.699 141.961 91.361 155.511 78.4213C163.266 71.0195 172.275 65.5244 182.098 61.4647C211.18 49.4461 246.014 50.6887 276.982 47.4216C292.567 45.7399 308.506 43.5333 323.449 39.6664C338.371 35.7994 352.606 30.0687 364.861 21.8314C391.511 3.91071 406.208 -21.1868 423.314 -48.4374C427.91 -55.7535 432.58 -62.6839 437.454 -69.2181C456.403 -94.819 477.794 -110.458 501.456 -121.684C519.72 -130.35 538.122 -142.197 560.338 -153.069C588.96 -167.08 622.98 -179.302 655.651 -186.8" stroke="#20202F" stroke-miterlimit="10"/>
<path d="M66.5291 419.632C80.0579 423.627 96.9396 416.515 103.677 405.524C106.13 401.486 106.912 397.233 107.608 393.152C109.226 383.672 108.487 372.125 107.94 359.935C107.137 342.079 108.305 323.676 122.948 307.63C131.271 298.504 139.851 290.063 145.592 278.987C147.681 274.938 149.352 270.503 150.412 265.458C155.575 240.703 143.096 215.231 133.52 193.743C132.277 190.948 131.013 188.13 129.792 185.281C121.094 164.865 113.618 142.563 115.739 119.554C117.452 100.455 125.85 81.6348 139.904 68.6844C147.949 61.2719 157.3 55.9267 167.444 52.0812C197.394 40.7268 233.278 42.9656 264.545 39.4629C280.399 37.6526 296.648 35.1246 311.784 30.7221C326.909 26.3089 341.188 19.8497 353.163 10.6055C379.139 -9.44675 391.286 -37.1472 407.461 -65.7581C411.842 -73.5134 416.427 -80.7116 421.3 -87.3529C440.485 -113.65 463.847 -127.511 490.091 -136.059C509.929 -142.529 530.142 -152.555 553.515 -162.249C583.647 -174.728 618.321 -186.661 651.377 -195.391" stroke="#20202F" stroke-miterlimit="10"/>
<path d="M55.7317 413.301C69.3034 417.811 86.742 410.13 92.7727 398.412C94.9686 394.106 95.3007 389.617 95.5042 385.333C95.9755 375.585 93.8011 363.642 92.205 351.184C89.8592 332.91 90.1912 314.229 106.591 298.493C115.674 289.774 125.433 281.976 131.999 271.103C134.388 267.129 136.316 262.716 137.569 257.607C143.643 232.584 129.91 206.715 119.509 185.399C118.149 182.614 116.778 179.797 115.439 176.937C105.959 156.531 97.7965 134.058 99.6818 110.685C101.214 91.1896 109.761 71.8871 124.308 58.926C132.652 51.5028 142.325 46.3076 152.812 42.6764C183.629 31.9861 220.563 35.221 252.131 31.4934C268.252 29.5653 284.812 26.7052 300.14 21.7671C315.469 16.8183 329.78 9.62007 341.498 -0.641734C366.81 -22.8257 376.386 -53.1398 391.629 -83.1004C395.807 -91.3055 400.284 -98.7609 405.169 -105.499C424.589 -132.481 449.933 -144.639 478.747 -150.445C500.16 -154.762 522.172 -162.924 546.713 -171.429C578.345 -182.387 613.682 -194.02 647.135 -203.993" stroke="#20202F" stroke-miterlimit="10"/>
<path d="M44.9451 406.97C58.5703 411.983 76.566 403.757 81.8683 391.31C83.8071 386.736 83.6893 382.012 83.4001 377.524C82.7466 367.487 79.0832 355.179 76.4696 342.443C72.5598 323.762 72.0564 304.759 90.2341 289.367C100.078 281.033 111.015 273.899 118.417 263.23C121.105 259.342 123.29 254.939 124.737 249.766C131.721 224.475 116.735 198.221 105.498 177.065C104.02 174.28 102.531 171.474 101.085 168.603C90.8126 148.219 81.9754 125.563 83.625 101.816C84.964 81.924 93.6619 62.1502 108.723 49.1677C117.356 41.7337 127.35 36.6671 138.18 33.2715C169.843 23.1918 207.849 27.4765 239.716 23.5131C256.105 21.4565 272.976 18.2858 288.497 12.8014C304.029 7.31704 318.383 -0.609599 329.823 -11.889C354.481 -36.1939 361.465 -69.1323 375.797 -100.443C379.761 -109.087 384.142 -116.81 389.037 -123.655C408.682 -151.323 436.029 -161.842 467.393 -164.852C490.402 -167.059 514.192 -173.314 539.89 -180.63C573.021 -190.057 609.023 -201.4 642.861 -212.605" stroke="#20202F" stroke-miterlimit="10"/>
<path d="M34.1583 400.64C47.8157 406.156 66.3791 397.373 70.9637 384.197C72.6347 379.356 72.0992 374.385 71.2958 369.715C69.5284 359.378 64.3974 346.706 60.7233 333.702C55.2818 314.603 53.9 295.247 73.8666 280.23C84.4605 272.271 96.5968 265.812 104.813 255.346C107.801 251.533 110.244 247.152 111.872 241.914C119.766 216.345 103.517 189.716 91.4659 168.721C89.8699 165.946 88.2738 163.129 86.7099 160.269C75.6554 139.906 66.1327 117.069 67.5467 92.9569C68.7035 72.669 77.5407 52.4132 93.1048 39.4199C102.038 31.9645 112.364 27.0693 123.515 23.8772C156.057 14.4616 195.102 19.7318 227.269 15.5542C243.926 13.369 261.096 9.877 276.821 3.85702C292.557 -2.17366 306.953 -10.8287 318.125 -23.115C342.13 -49.5408 346.511 -85.1036 359.944 -117.764C363.682 -126.858 367.988 -134.838 372.884 -141.79C392.765 -170.144 422.168 -177.953 456.028 -179.227C480.643 -180.159 506.201 -183.673 533.066 -189.8C567.697 -197.705 604.363 -208.749 638.587 -221.196" stroke="#20202F" stroke-miterlimit="10"/>
<path d="M23.361 394.298C37.0719 400.318 56.1923 390.989 60.0592 377.085C61.4732 371.975 60.4984 366.759 59.1916 361.896C56.3208 351.248 49.7117 338.223 44.9879 324.951C38.0146 305.434 35.7437 285.693 57.5099 271.093C68.8535 263.487 82.1789 257.724 91.2196 247.463C94.508 243.724 97.2074 239.364 99.0284 234.062C107.833 208.226 90.2876 181.232 77.4443 160.376C75.7304 157.613 74.0166 154.796 72.3455 151.925C60.4984 131.573 50.3116 108.564 51.4792 84.0877C52.4432 63.4034 61.4303 42.6763 77.4979 29.6723C86.7206 22.2063 97.3788 17.461 108.872 14.4831C142.282 5.7424 182.365 11.998 214.843 7.5848C231.778 5.27108 249.249 1.45772 265.167 -5.09784C281.106 -11.6641 295.577 -21.0261 306.45 -34.3622C329.855 -62.866 331.569 -101.096 344.112 -135.106C347.636 -144.65 351.846 -152.887 356.752 -159.935C376.868 -188.975 408.307 -196.312 444.684 -193.624C470.971 -191.674 498.232 -194.052 526.264 -199.001C562.395 -205.374 599.725 -216.14 634.335 -229.818" stroke="#20202F" stroke-miterlimit="10"/>
<path d="M12.5742 387.968C26.328 394.491 46.0161 384.604 49.1547 369.983C50.3115 364.606 48.9083 359.132 47.0873 354.087C43.124 343.107 35.0152 329.75 29.2523 316.21C20.7472 296.287 17.598 276.116 41.153 261.966C53.2572 254.693 67.7609 249.648 77.6264 239.59C81.2148 235.926 84.1712 231.599 86.1743 226.221C95.8898 200.117 77.1015 172.738 63.4226 152.043C61.5909 149.29 59.77 146.473 57.9811 143.591C45.352 123.26 34.4796 100.059 35.4008 75.2185C36.1721 54.1379 45.3092 32.9287 61.8802 19.914C71.4029 12.4373 82.3823 7.85265 94.2081 5.07833C128.496 -2.99829 169.618 4.25352 202.396 -0.384646C219.599 -2.82691 237.381 -6.96164 253.491 -14.0528C269.634 -21.1546 284.137 -31.2665 294.742 -45.5987C317.483 -76.2449 316.508 -117.099 328.248 -152.437C331.526 -162.431 335.682 -170.926 340.588 -178.081C360.94 -207.806 394.478 -213.58 433.308 -208.009C461.266 -204.003 490.23 -204.421 519.43 -208.181C557.071 -213.033 595.055 -223.499 630.05 -238.409" stroke="#20202F" stroke-miterlimit="10"/>
<path d="M1.7876 381.637C15.5843 388.675 35.8294 378.231 38.2609 362.881C39.15 357.225 37.329 351.505 34.9939 346.278C22.4612 318.288 -17.7398 275.817 24.8177 252.84C42.3528 243.382 65.1366 238.775 73.3632 218.38C83.9892 192.008 63.9476 164.233 49.4332 143.709C33.7513 121.536 18.5835 95.1531 19.3762 66.3708C19.9653 44.9045 29.2524 23.2133 46.3161 10.1772C84.5033 -18.98 145.485 -1.78775 190.003 -8.34331C224.977 -13.4849 262.457 -26.1676 283.098 -56.8245C305.175 -89.6022 301.651 -133.049 312.438 -169.758C328.355 -223.895 370.87 -232.85 421.975 -222.384C489.855 -208.491 562.973 -218.325 625.808 -247" stroke="#20202F" stroke-miterlimit="10"/>
</g>
</g>
<g clip-path="url(#clip1_237_5881)">
<g style="mix-blend-mode:overlay" opacity="0.4">
<path d="M1069.94 -182.957C1039.56 -184.017 1010.65 -165.497 993.89 -140.142C977.126 -114.777 971.192 -83.5414 971.267 -53.1416C971.342 -22.7418 977.019 7.32592 981.689 37.3615C984.881 57.9066 987.613 78.9443 983.81 99.3822C979.043 125.026 963.64 148.517 942.034 163.128C906.804 186.95 861.108 185.644 818.625 187.604C766.845 189.992 710.501 201.218 677.723 241.366C645.267 281.106 643.928 339.817 610.775 378.968C591.162 402.127 561.127 416.106 530.77 416.191" stroke="#1C1C28" stroke-miterlimit="10"/>
<path d="M1080.74 -176.626C1067.48 -177.59 1053.97 -173.787 1042.91 -167.157C1038.89 -164.747 1035.24 -161.972 1031.77 -159.016C1022.88 -151.443 1015.41 -141.974 1009.64 -131.391C1001.29 -116.03 995.743 -98.827 990.912 -81.4097C987.623 -69.5626 985.663 -57.5334 984.87 -45.247C984.581 -40.7374 984.463 -36.1742 984.517 -31.5254C984.828 -8.37738 989.916 14.717 994.372 37.233C994.939 40.0609 995.507 42.8888 996.053 45.7274C1000.04 66.251 1003.44 87.4709 999.878 108.284C997.028 125.015 989.519 140.965 978.486 153.841C972.199 161.167 964.85 167.477 956.677 172.565C931.987 188 902.337 191.631 872.88 193.763C858.644 194.802 844.237 195.413 830.279 196.591C816.365 197.759 802.3 199.751 788.739 203.007C758.704 210.131 731.485 222.513 709.494 242.812C703.924 247.954 698.697 253.524 693.855 259.544C676.074 281.717 665.319 306.879 653.772 330.776C644.014 351 633.977 371.384 617.577 388.18C596.464 409.818 565.765 423.497 535.022 424.825" stroke="#1C1C28" stroke-miterlimit="10"/>
<path d="M1091.53 -170.296C1078.21 -171.763 1064.15 -167.414 1053.81 -160.055C1050.05 -157.366 1046.89 -154.335 1043.87 -151.207C1036.2 -143.259 1030.1 -133.501 1025.37 -122.65C1018.56 -106.872 1013.62 -89.4758 1007.27 -72.2835C1003.07 -60.8969 1000.07 -49.4569 998.453 -37.3741C997.864 -32.9394 997.489 -28.3977 997.36 -23.6845C996.761 -0.268747 1003.04 23.2327 1008.39 45.5666C1009.07 48.3838 1009.75 51.2117 1010.42 54.0503C1015.18 74.5632 1019.27 95.9544 1015.95 117.131C1013.28 134.259 1005.63 150.691 994.093 163.567C987.516 170.904 979.836 177.063 971.331 181.937C945.762 196.709 915.073 199.344 885.316 201.711C870.812 202.879 856.095 203.81 841.944 205.524C827.826 207.238 813.73 209.991 800.426 214.222C771.076 223.552 746.332 238.399 725.337 260.122C719.96 265.692 714.839 271.541 709.998 277.668C691.981 300.526 678.955 323.782 665.137 345.151C653.558 363.051 641.968 381.743 624.411 397.349C601.788 417.455 570.435 430.856 539.307 433.405" stroke="#1C1C28" stroke-miterlimit="10"/>
<path d="M1102.31 -163.965C1088.96 -165.947 1074.33 -161.041 1064.7 -152.953C1061.2 -149.997 1058.52 -146.698 1055.96 -143.398C1049.54 -135.108 1044.77 -125.028 1041.1 -113.909C1035.82 -97.7131 1031.53 -80.1352 1023.61 -63.1572C1018.53 -52.2419 1014.48 -41.3803 1012.04 -29.501C1011.15 -25.1413 1010.51 -20.621 1010.19 -15.8436C1008.68 7.83996 1016.19 31.7378 1022.39 53.9003C1023.19 56.7174 1023.98 59.5453 1024.76 62.3839C1030.31 82.8754 1035.08 104.449 1031.99 125.99C1029.52 143.514 1021.72 160.417 1009.68 173.314C1002.8 180.673 994.79 186.672 985.963 191.331C959.527 205.428 927.788 207.077 897.731 209.67C882.959 210.966 867.931 212.219 853.588 214.469C839.266 216.718 825.138 220.231 812.102 225.448C783.426 236.942 761.178 254.305 741.179 277.443C735.995 283.441 730.993 289.568 726.14 295.792C707.898 319.336 692.666 340.652 676.491 359.516C663.145 375.08 649.948 392.079 631.224 406.519C607.101 425.103 575.073 438.204 543.57 441.996" stroke="#1C1C28" stroke-miterlimit="10"/>
<path d="M1113.11 -157.623C1099.71 -160.109 1084.52 -154.646 1075.62 -145.841C1072.39 -142.616 1070.19 -139.071 1068.08 -135.579C1062.87 -126.967 1059.45 -116.555 1056.84 -105.158C1053.05 -88.5544 1049.52 -70.7944 1039.98 -54.0199C1034.05 -43.5653 1028.91 -33.2928 1025.64 -21.617C1024.45 -17.3324 1023.56 -12.8334 1023.05 -7.99175C1020.63 15.9596 1029.37 40.2537 1036.43 62.2448C1037.33 65.0513 1038.25 67.8792 1039.14 70.7285C1045.48 91.1986 1050.92 112.965 1048.07 134.87C1045.79 152.791 1037.83 170.176 1025.3 183.083C1018.13 190.453 1009.78 196.27 1000.62 200.747C973.28 214.115 940.535 214.844 910.167 217.661C895.117 219.086 879.799 220.66 865.253 223.445C850.728 226.241 836.567 230.483 823.788 236.717C795.788 250.364 776.035 270.287 757.022 294.796C752.03 301.233 747.146 307.628 742.283 313.959C723.805 338.189 706.452 357.566 687.846 373.934C672.807 387.163 657.928 402.48 638.036 415.731C612.414 432.795 579.722 445.595 547.823 450.63" stroke="#1C1C28" stroke-miterlimit="10"/>
<path d="M1123.9 -151.293C1110.45 -154.281 1094.7 -148.272 1086.51 -138.728C1083.54 -135.236 1081.82 -131.444 1080.17 -127.77C1076.19 -118.858 1074.12 -108.082 1072.58 -96.4169C1070.32 -79.396 1067.53 -61.4432 1056.34 -44.8936C1049.58 -34.8996 1043.32 -25.2162 1039.23 -13.744C1037.74 -9.54503 1036.59 -5.05682 1035.9 -0.150864C1032.57 24.0683 1042.55 48.7587 1050.45 70.5785C1051.47 73.3849 1052.49 76.2021 1053.5 79.0514C1060.62 99.5108 1066.75 121.448 1064.14 143.718C1062.04 162.035 1053.94 179.891 1040.89 192.82C1033.43 200.201 1024.75 205.867 1015.26 210.13C987.045 222.824 953.26 222.567 922.593 225.609C907.275 227.162 891.647 229.047 876.907 232.379C862.189 235.71 847.986 240.702 835.474 247.932C808.16 263.721 790.924 286.216 772.865 312.106C768.076 318.983 763.288 325.645 758.425 332.083C739.712 356.999 720.313 374.48 699.2 388.298C682.522 399.213 665.908 412.828 644.86 424.889C617.738 440.421 584.381 452.933 552.096 459.199" stroke="#1C1C28" stroke-miterlimit="10"/>
<path d="M1134.68 -144.962C1121.2 -148.454 1104.88 -141.888 1097.42 -131.626C1094.7 -127.866 1093.45 -123.839 1092.28 -119.961C1089.49 -110.76 1088.81 -99.609 1088.31 -87.6762C1087.58 -70.2376 1085.59 -52.0705 1072.68 -35.7566C1065.13 -26.2018 1057.72 -17.1397 1052.8 -5.86025C1051.02 -1.73625 1049.6 2.71982 1048.72 7.70076C1044.47 32.1877 1055.71 57.2745 1064.45 78.9228C1065.57 81.7186 1066.73 84.5465 1067.84 87.3958C1075.76 107.834 1082.55 129.953 1080.19 152.587C1078.29 171.301 1070.04 189.639 1056.49 202.579C1048.73 209.98 1039.73 215.476 1029.9 219.535C1000.82 231.554 965.986 230.311 935.018 233.578C919.433 235.26 903.494 237.467 888.551 241.334C873.629 245.201 859.394 250.931 847.139 259.169C820.489 277.089 805.792 302.187 788.686 329.437C784.09 336.753 779.42 343.684 774.546 350.218C755.597 375.819 734.206 391.458 710.544 402.684C692.28 411.35 673.878 423.197 651.662 434.069C623.04 448.08 589.02 460.302 556.349 467.8" stroke="#1C1C28" stroke-miterlimit="10"/>
<path d="M1145.47 -138.632C1131.94 -142.627 1115.06 -135.515 1108.32 -124.524C1105.87 -120.486 1105.09 -116.234 1104.39 -112.152C1102.77 -102.673 1103.51 -91.1253 1104.06 -78.9354C1104.86 -61.079 1103.7 -42.6763 1089.05 -26.6302C1080.73 -17.5038 1072.15 -9.06302 1066.41 2.01288C1064.32 6.0619 1062.65 10.4965 1061.59 15.5418C1056.42 40.2965 1068.9 65.7689 1078.48 87.2566C1079.72 90.0523 1080.99 92.8695 1082.21 95.7188C1090.91 116.135 1098.38 138.437 1096.26 161.446C1094.55 180.545 1086.15 199.365 1072.1 212.316C1064.05 219.728 1054.7 225.073 1044.56 228.919C1014.61 240.273 978.722 238.034 947.455 241.537C931.601 243.347 915.352 245.875 900.216 250.278C885.091 254.691 870.812 261.15 858.837 270.394C832.861 290.447 820.714 318.147 804.539 346.758C800.158 354.513 795.573 361.712 790.7 368.353C771.515 394.65 748.153 408.511 721.909 417.059C702.071 423.529 681.858 433.555 658.485 443.249C628.353 455.728 593.679 467.661 560.623 476.391" stroke="#1C1C28" stroke-miterlimit="10"/>
<path d="M1156.27 -132.301C1142.7 -136.811 1125.26 -129.13 1119.23 -117.412C1117.03 -113.106 1116.7 -108.617 1116.5 -104.333C1116.02 -94.5852 1118.2 -82.6416 1119.8 -70.1839C1122.14 -51.9098 1121.81 -33.2286 1105.41 -17.4931C1096.33 -8.77378 1086.57 -0.975657 1080 9.89671C1077.61 13.8708 1075.68 18.284 1074.43 23.3934C1068.36 48.416 1082.09 74.2847 1092.49 95.601C1093.85 98.386 1095.22 101.203 1096.56 104.063C1106.04 124.469 1114.2 146.942 1112.32 170.315C1110.79 189.81 1102.24 209.113 1087.69 222.074C1079.35 229.497 1069.68 234.692 1059.19 238.324C1028.37 249.014 991.437 245.779 959.869 249.507C943.748 251.435 927.188 254.295 911.86 259.233C896.531 264.182 882.22 271.38 870.502 281.642C845.19 303.826 835.614 334.14 820.371 364.1C816.193 372.306 811.716 379.761 806.831 386.499C787.411 413.481 762.067 425.639 733.253 431.445C711.84 435.762 689.828 443.924 665.287 452.429C633.655 463.387 598.318 475.02 564.865 484.993" stroke="#1C1C28" stroke-miterlimit="10"/>
<path d="M1167.06 -125.97C1153.43 -130.983 1135.43 -122.757 1130.13 -110.31C1128.19 -105.736 1128.31 -101.012 1128.6 -96.5239C1129.25 -86.4871 1132.92 -74.1793 1135.53 -61.4431C1139.44 -42.7619 1139.94 -23.7594 1121.77 -8.36666C1111.92 -0.0329621 1100.99 7.10101 1093.58 17.7699C1090.89 21.6582 1088.71 26.0607 1087.26 31.2345C1080.28 56.5248 1095.27 82.7791 1106.5 103.935C1107.98 106.72 1109.47 109.526 1110.92 112.397C1121.19 132.781 1130.02 155.437 1128.38 179.184C1127.04 199.076 1118.34 218.85 1103.28 231.832C1094.64 239.266 1084.65 244.333 1073.82 247.729C1042.16 257.808 1004.15 253.524 972.284 257.487C955.895 259.544 939.024 262.714 923.503 268.199C907.971 273.683 893.618 281.61 882.177 292.889C857.519 317.194 850.535 350.132 836.203 381.443C832.24 390.087 827.858 397.81 822.963 404.655C803.318 432.323 775.971 442.842 744.607 445.852C721.598 448.059 697.808 454.314 672.11 461.63C638.979 471.057 602.977 482.4 569.139 493.605" stroke="#1C1C28" stroke-miterlimit="10"/>
<path d="M1177.84 -119.64C1164.18 -125.156 1145.62 -116.373 1141.04 -103.197C1139.37 -98.3556 1139.9 -93.3854 1140.7 -88.7151C1142.47 -78.3783 1147.6 -65.7064 1151.28 -52.7024C1156.72 -33.6034 1158.1 -14.2474 1138.13 0.770411C1127.54 8.7292 1115.4 15.1884 1107.19 25.6537C1104.2 29.4671 1101.76 33.8481 1100.13 39.0862C1092.23 64.655 1108.48 91.2843 1120.53 112.279C1122.13 115.054 1123.73 117.871 1125.29 120.731C1136.34 141.094 1145.87 163.931 1144.45 188.043C1143.3 208.331 1134.46 228.587 1118.9 241.58C1109.96 249.035 1099.64 253.931 1088.48 257.123C1055.94 266.538 1016.9 261.268 984.731 265.446C968.074 267.631 950.904 271.123 935.179 277.143C919.443 283.174 905.047 291.829 893.875 304.115C869.87 330.541 865.489 366.104 852.056 398.764C848.318 407.858 844.012 415.838 839.116 422.79C819.235 451.144 789.832 458.953 755.972 460.227C731.357 461.159 705.799 464.673 678.934 470.8C644.303 478.705 607.637 489.749 573.413 502.196" stroke="#1C1C28" stroke-miterlimit="10"/>
<path d="M1188.64 -113.298C1174.93 -119.318 1155.81 -109.989 1151.94 -96.0848C1150.53 -90.9753 1151.5 -85.7587 1152.81 -80.8956C1155.68 -70.2482 1162.29 -57.2228 1167.01 -43.951C1173.99 -24.4343 1176.26 -4.69262 1154.49 9.90743C1143.15 17.5127 1129.82 23.2756 1120.78 33.5374C1117.49 37.2758 1114.79 41.6355 1112.97 46.9378C1104.17 72.7744 1121.71 99.7679 1134.56 120.624C1136.27 123.387 1137.98 126.204 1139.65 129.075C1151.5 149.427 1161.69 172.436 1160.52 196.912C1159.56 217.597 1150.57 238.324 1134.5 251.328C1125.28 258.794 1114.62 263.539 1103.13 266.517C1069.72 275.258 1029.63 269.002 997.157 273.415C980.222 275.729 962.751 279.542 946.833 286.098C930.894 292.664 916.423 302.026 905.55 315.362C882.145 343.866 880.432 382.096 867.888 416.106C864.364 425.65 860.154 433.887 855.248 440.935C835.132 469.975 803.693 477.312 767.316 474.624C741.029 472.674 713.768 475.052 685.736 480.001C649.605 486.374 612.275 497.14 577.665 510.818" stroke="#1C1C28" stroke-miterlimit="10"/>
<path d="M1199.43 -106.968C1185.67 -113.491 1165.98 -103.604 1162.85 -88.983C1161.69 -83.6057 1163.09 -78.132 1164.91 -73.0868C1168.88 -62.1073 1176.98 -48.7499 1182.75 -35.2103C1191.25 -15.2865 1194.4 4.88361 1170.85 19.0338C1158.74 26.307 1144.24 31.3522 1134.37 41.4105C1130.79 45.0739 1127.83 49.4014 1125.83 54.7787C1116.11 80.8831 1134.9 108.262 1148.58 128.957C1150.41 131.71 1152.23 134.527 1154.02 137.409C1166.65 157.74 1177.52 180.941 1176.6 205.782C1175.83 226.862 1166.69 248.071 1150.12 261.086C1140.6 268.563 1129.62 273.147 1117.79 275.922C1083.5 283.998 1042.38 276.746 1009.6 281.385C992.401 283.827 974.619 287.962 958.509 295.053C942.366 302.155 927.863 312.266 917.258 326.599C894.517 357.245 895.492 398.099 883.752 433.437C880.474 443.431 876.318 451.926 871.412 459.081C851.06 488.806 817.522 494.58 778.692 489.009C750.734 485.003 721.77 485.421 692.57 489.181C654.929 494.033 616.945 504.499 581.95 519.409" stroke="#1C1C28" stroke-miterlimit="10"/>
<path d="M1210.21 -100.637C1196.42 -107.675 1176.17 -97.231 1173.74 -81.8812C1172.85 -76.2254 1174.67 -70.5054 1177.01 -65.2781C1189.54 -37.2884 1229.74 5.18348 1187.18 28.1601C1169.65 37.6185 1146.86 42.2245 1138.64 62.6196C1128.01 88.9918 1148.05 116.767 1162.57 137.291C1178.25 159.464 1193.42 185.847 1192.62 214.629C1192.03 236.095 1182.75 257.787 1165.68 270.823C1127.5 299.98 1066.52 282.788 1022 289.343C987.024 294.485 949.543 307.168 928.902 337.824C906.825 370.602 910.349 414.049 899.563 450.758C883.645 504.895 841.13 513.85 790.025 503.384C722.145 489.491 649.027 499.325 586.192 528" stroke="#1C1C28" stroke-miterlimit="10"/>
</g>
</g>
<defs>
<clipPath id="clip0_237_5881">
<rect width="702" height="280" fill="white" transform="matrix(1 0 0 -1 0 280)"/>
</clipPath>
<clipPath id="clip1_237_5881">
<rect width="702" height="280" fill="white" transform="matrix(-1 0 0 1 1212 1)"/>
</clipPath>
</defs>
</svg>
